
 
http://i1292.photobucket.com/albums/b566/MrLamia/rec_zpse135c52b.jpg


General
 Complete name: Recognize 2012 DVDRip x264 AAC-UNiQUE.mp4
 Format: MPEG-4
 Format profile: Base Media
 Codec ID: isom
 File size: 1.40 GiB
 Duration: 1h 32mn
 Overall bit rate mode: Variable
 Overall bit rate: 2 171 Kbps
 Encoded date: UTC 2012-11-06 23:38:57

 Video
 ID: 1
 Format: AVC
 Format/Info: Advanced Video Codec
 Format profile: High@L4.1
 Format settings, CABAC: Yes
 Format settings, ReFrames: 3 frames
 Codec ID: avc1
 Codec ID/Info: Advanced Video Coding
 Duration: 1h 32mn
 Bit rate mode: Variable
 Bit rate: 2 052 Kbps
 Maximum bit rate: 40.0 Mbps
 Width: 720 pixels
 Height: 384 pixels
 Display aspect ratio: 1.85:1
 Frame rate mode: Constant
 Frame rate: 23.976 fps
 Color space: YUV
 Chroma subsampling: 4:2:0
 Bit depth: 8 bits
 Scan type: Progressive
 Bits/(Pixel*Frame): 0.310
 Stream size: 1.32 GiB (94%)
 Writing library: x264 core 128 r2216 198a7ea

 Audio
 ID: 2
 Format: AAC
 Format/Info: Advanced Audio Codec
 Format profile: LC
 Codec ID: 40
 Duration: 1h 32mn
 Bit rate mode: Variable
 Bit rate: 116 Kbps
 Maximum bit rate: 159 Kbps
 Channel(s): 2 channels
 Channel positions: Front: L R
 Sampling rate: 48.0 KHz
 Compression mode: Lossy
 Stream size: 76.3 MiB (5%)
 Language: English
 Encoded date: UTC 2012-11-06 23:39:32

 Sources: RETAIL HK INC - Thanks!

 Storyline
 Derrill Davis aka Dee Dee lives the life as a professional used car salesman by day and one of Atlanta's most deadly and feared undercover street gangsters by night. He hooks up partner oneway Boobe aka Ray and does a string of crimes that involve robbing, kidnapping and the killing of well-known drug dealers

 iMDB: http://www.imdb.com/title/tt2175098/


 
http://screenshot.ru/images/ovGgA.jpg

